<svg width="128.08994140624998px" height="182.24003295898436px" xmlns="http://www.w3.org/2000/svg" viewBox="185.955029296875 -16.12001647949218 128.08994140624998 182.24003295898436" style="background: rgb(255, 255, 255);" preserveAspectRatio="xMidYMid"><defs><filter id="editing-jagged" x="-100%" y="-100%" width="300%" height="300%"><feTurbulence result="turb" baseFrequency="0.17" numOctaves="1" seed="1"></feTurbulence><feDisplacementMap in="SourceGraphic" in2="turb" scale="6.5"></feDisplacementMap></filter></defs><g filter="url(#editing-jagged)"><g transform="translate(214.98440837860107, 104.53000068664551)"><path d="M34.69-10.94L34.75-10.75L34.75-10.75Q32.72-12.47 31.69-12.47L31.69-12.47L31.16-12.47L31.50-9.28L31.50-9.28Q33.06-8.59 33.69-7.06L33.69-7.06L33.69-7.06Q34.25-5.69 35.72-5.69L35.72-5.69L35.72-5.69Q35.78-5.69 37.63-7.13L37.63-7.13L37.63-7.13Q39.47-8.56 40.06-8.56L40.06-8.56L40.06-8.56Q39.72-8.13 38.88-7.31L38.88-7.31L38.88-7.31Q36.81-5.22 36.81-5.06L36.81-5.06L36.81-5.06Q36.81-4.91 36.94-4.59L36.94-4.59L36.94-4.53L36.94-4.53Q37.16-4.19 39.03-3.84L39.03-3.84L39.69-3.72L39.69-3.72Q39.69-3.56 38.94-3.50L38.94-3.50L38.94-3.50Q38.19-3.44 37.91-3.34L37.91-3.34L37.91-3.34Q37.63-3.25 37.53-3.16L37.53-3.16L37.53-3.16Q37.44-3.06 37.34-2.95L37.34-2.95L37.34-2.95Q37.25-2.84 36.83-2.67L36.83-2.67L36.83-2.67Q36.41-2.50 36.02-1.91L36.02-1.91L36.02-1.91Q35.63-1.31 35.56-0.81L35.56-0.81L35.56-0.81Q35.47 0.50 35 0.50L35 0.50L35 0.50Q34.41 0.50 33.34-0.72L33.34-0.72L33.34-0.72Q32.28-1.94 31.56-3.19L31.56-3.19L30.03-2.31L30.03-2.31Q29.34-2 29.13 3.66L29.13 3.66L29.13 3.66Q29.13 4.31 28.53 4.53L28.53 4.53L28.53 4.53Q28.53 2.47 27.28 0.27L27.28 0.27L27.28 0.27Q26.03-1.94 24.39-3.27L24.39-3.27L24.39-3.27Q22.75-4.59 21.84-4.59L21.84-4.59L21.84-4.59Q20.94-4.59 18.75-4.47L18.75-4.47L17.72-4.03L17.72-4.03Q17.69-4.03 16.52-3.08L16.52-3.08L16.52-3.08Q15.34-2.13 14.91-2.13L14.91-2.13L15.16-2.38L15.09-2.38L15.09-2.38Q14.97-2.38 13.91-3.30L13.91-3.30L13.91-3.30Q12.84-4.22 12.47-4.22L12.47-4.22L7.94-3.97L7.94-3.97Q6.97-3.16 5.06-2.81L5.06-2.81L5.06-2.81Q4.59-2 2.98-1.63L2.98-1.63L2.98-1.63Q1.38-1.25-0.66-0.95L-0.66-0.95L-0.66-0.95Q-2.69-0.66-3.30-0.33L-3.30-0.33L-3.30-0.33Q-3.91 0-4.13 0L-4.13 0L-4.13 0Q-4.34 0-4.47-0.06L-4.47-0.06L-4.47-0.06Q-2.63-1.16-1.84-2.06L-1.84-2.06L-0.69-3.72L-0.69-3.72Q-0.44-4.06-0.34-4.94L-0.34-4.94L-0.34-4.94Q-0.25-5.81-0.06-6.03L-0.06-6.03L-0.06-6.03Q-0.19-4.88-0.19-4.30L-0.19-4.30L-0.19-4.30Q-0.19-3.72-0.06-3.59L-0.06-3.59L-0.06-4.22L-0.06-4.22Q-0.06-6.22 1.34-6.28L1.34-6.28L1.34-6.28Q1.34-8.53 3.84-9.28L3.84-9.28L3.13-14.47L3.13-14.47Q3.03-15.03 1.47-15.94L1.47-15.94L1.66-16.91L1.66-16.91Q2.63-16.56 2.75-16.56L2.75-16.56L2.75-16.56Q3.34-16.56 4.33-18.20L4.33-18.20L4.33-18.20Q5.31-19.84 5.88-20.22L5.88-20.22L5.88-20.22Q5.81-20.88 5.81-22.03L5.81-22.03L6.16-26.25L6.16-26.25Q6.16-26.53 5.23-27.19L5.23-27.19L5.23-27.19Q4.31-27.84 4.28-28.28L4.28-28.28L4.28-28.41L4.28-28.41Q5.59-27.84 6.22-27.84L6.22-27.84L6.22-27.84Q6.84-27.84 7.52-29.27L7.52-29.27L7.52-29.27Q8.19-30.69 8.19-31.22L8.19-31.22L8.19-31.22Q8.19-31.75 7.44-32.44L7.44-32.44L7.44-32.44Q6.47-33.34 6.72-33.84L6.72-33.84L6.72-33.84Q8.28-32.91 8.69-32.91L8.69-32.91L8.69-32.91Q9.09-32.91 9.53-33.34L9.53-33.34L9.53-33.34Q9.47-33.59 9.47-34.61L9.47-34.61L9.47-34.61Q9.47-35.63 10.56-38.41L10.56-38.41L10.56-38.41Q11.66-41.19 11.66-42.75L11.66-42.75L11.59-43.53L11.59-43.53Q11.59-43.72 10.56-44.53L10.56-44.53L10.88-45.44L10.88-45.44Q11.81-45 11.91-45L11.91-45L11.91-45Q13.06-45 16.75-48.88L16.75-48.88L16.75-48.88Q18.28-50.50 18.94-51L18.94-51L18.94-51Q18.94-51.63 19.41-52.88L19.41-52.88L20.16-52.88L20.16-52.88Q20.09-52.50 20.09-51.66L20.09-51.66L20.09-51.66Q20.09-50.81 20.47-49.75L20.47-49.75L20.47-49.75Q20.84-48.69 22.02-46.33L22.02-46.33L22.02-46.33Q23.19-43.97 24.19-42.19L24.19-42.19L24.19-42.19Q26.69-37.63 27.28-33.41L27.28-33.41L27.28-33.41Q27.63-30.84 28.38-29.81L28.38-29.81L28.38-29.81Q29.13-28.78 29.53-28.25L29.53-28.25L29.53-28.25Q30.47-26.97 30.47-24.97L30.47-24.97L30.34-22.47L30.34-20.47L30.34-20.47Q32.25-17.84 32.84-13.94L32.84-13.94L32.84-13.94Q33.03-13 34.31-11.78L34.31-11.78L34.31-11.78Q34.69-11.41 34.69-10.94L34.69-10.94ZM20.03-8.84L20.03-8.84L20.41-8.91L21.38-9.03L23.16-11L22.78-16.63L22.78-16.63Q21.69-17.44 21.11-19.06L21.11-19.06L21.11-19.06Q20.53-20.69 20.53-21.48L20.53-21.48L20.53-21.48Q20.53-22.28 20.58-22.41L20.58-22.41L20.58-22.41Q20.63-22.53 20.63-22.59L20.63-22.59L19.66-21.25L19.66-21.25Q19.41-20.91 19.41-20.64L19.41-20.64L19.41-20.64Q19.41-20.38 19.69-19.70L19.69-19.70L19.69-19.70Q19.97-19.03 19.97-18.53L19.97-18.53L19.97-18.53Q19.97-18.03 19.78-17.84L19.78-17.84L19.78-17.84Q18.88-19.34 18.45-19.72L18.45-19.72L18.45-19.72Q18.03-20.09 17.41-20.09L17.41-20.09L10.44-20.09L10.88-18.38L10.88-18.38Q10.97-17.97 12.11-17.14L12.11-17.14L12.11-17.14Q13.25-16.31 13.31-15.81L13.31-15.81L13.31-15.81Q11.94-16.31 11.34-16.31L11.34-16.31L11.34-16.31Q10.75-16.31 10.25-15.94L10.25-15.94L9.66-15.09L9.66-9.03L12.03-9.16L13.97-8.84L13.97-8.84Q14.09-8.84 14.80-9.16L14.80-9.16L14.80-9.16Q15.50-9.47 15.94-9.47L15.94-9.47L15.94-9.47Q16.38-9.47 16.50-9.41L16.50-9.41L16.50-9.41Q15.28-8.66 14.89-8.27L14.89-8.27L14.89-8.27Q14.50-7.88 14.41-7.44L14.41-7.44L14.41-6.72L14.34-6.53L14.34-6.53Q14.34-6.09 14.81-6.06L14.81-6.06L14.81-6.06Q15.84-5.94 16.25-5.06L16.25-5.06L16.25-5.06Q14.84-5.50 14.44-5.50L14.44-5.50L14.44-5.50Q14.03-5.50 14.08-4.89L14.08-4.89L14.08-4.89Q14.13-4.28 15.44-2.63L15.44-2.63L15.44-2.63Q16.56-3.88 16.83-4.52L16.83-4.52L16.83-4.52Q17.09-5.16 17.83-6.50L17.83-6.50L17.83-6.50Q18.56-7.84 18.56-8.09L18.56-8.09L18.56-8.09Q18.56-8.34 18.11-9.14L18.11-9.14L18.11-9.14Q17.66-9.94 17.66-10.27L17.66-10.27L17.66-10.27Q17.66-10.59 17.94-10.81L17.94-10.81L17.94-10.81Q19.25-8.84 20.03-8.84ZM16.06-29.75L16.06-29.75L14.22-30.09L14.22-30.09Q13.56-30.09 13-29.31L13-29.31L13-29.31Q11.97-27.91 11.97-26.84L11.97-26.84L11.97-26.84Q11.97-25.78 12.03-25.53L12.03-25.53L13.44-25.03L13.44-25.03Q15.53-25.03 16.72-25.48L16.72-25.48L16.72-25.48Q17.91-25.94 18.56-26.06L18.56-26.06L19.59-26.38L19.59-26.38Q18.69-28.28 18.69-29.23L18.69-29.23L18.69-29.23Q18.69-30.19 17.83-34.53L17.83-34.53L17.83-34.53Q16.97-38.88 16.50-40.38L16.50-40.38L13.75-34.13L13.75-33.47L13.75-33.47Q13.91-33.31 14.03-32.19L14.03-32.19L14.03-31.94L14.03-31.94Q14.16-31.16 15.50-30.59L15.50-30.59L15.50-30.59Q16.31-30.16 16.31-29.88L16.31-29.88L16.31-29.88Q16.31-29.75 16.06-29.75ZM41.97-3.31L41.91-4.03L41.91-4.03Q43.91-4.38 43.91-5.19L43.91-5.19L43.78-7.88L43.78-7.88Q43.69-8.34 43.59-8.44L43.59-8.44L43.38-8.50L43.38-8.50Q43.38-8.72 42.75-8.72L42.75-8.72L42.75-8.72Q42.13-8.72 40.50-7.75L40.50-7.75L40.19-8.19L40.19-8.19Q41.44-9 41.81-9.45L41.81-9.45L41.81-9.45Q42.19-9.91 42.22-10.66L42.22-10.66L42.22-10.66Q42.25-11.41 42.22-11.89L42.22-11.89L42.22-11.89Q42.19-12.38 42.02-13.08L42.02-13.08L42.02-13.08Q41.84-13.78 41.42-14.13L41.42-14.13L41.42-14.13Q41-14.47 40.31-14.47L40.31-14.47L40.31-14.47Q39.63-14.47 39.28-14.41L39.28-14.41L39.09-15.50L39.09-15.50Q40.63-15.72 40.98-16.14L40.98-16.14L40.98-16.14Q41.34-16.56 41.34-17.59L41.34-17.59L41.34-18.19L41.34-18.19Q41.34-19.31 40.19-21.38L40.19-21.38L40.44-21.50L40.44-21.50Q41.53-19.47 42.50-18.75L42.50-18.75L43.53-18.13L43.84-17.97L43.84-17.97Q46.47-17.69 46.66-12.22L46.66-12.22L46.66-12.22Q46.66-12 47.13-11.44L47.13-11.44L47.13-11.44Q49-9.19 49.22-8.61L49.22-8.61L49.22-8.61Q49.44-8.03 49.52-7.88L49.52-7.88L49.52-7.88Q49.59-7.72 49.66-7.63L49.66-7.63L49.66-7.63Q49.72-7.53 49.78-7.44L49.78-7.44L49.78-7.44Q49.88-7.28 50.05-7.28L50.05-7.28L50.05-7.28Q50.22-7.28 50.36-7.59L50.36-7.59L50.36-7.59Q50.50-7.91 50.50-8.56L50.50-8.56L50.50-8.56Q50.50-9.22 49.91-10.25L49.91-10.25L50.44-10.50L50.44-10.50Q51.03-9.13 51.42-8.75L51.42-8.75L51.42-8.75Q51.81-8.38 52.41-8.38L52.41-8.38L54.66-8.38L54.66-8.38Q56.06-8.38 57.84-8.91L57.84-8.91L57.84-8.91Q58.03-9.22 59.14-10L59.14-10L59.14-10Q60.25-10.78 60.41-11.66L60.41-11.66L60.66-16.31L60.66-16.31Q60.66-16.69 59.78-18.50L59.78-18.50L55.75-21.88L55.75-21.88Q55.63-22.03 55.28-22.03L55.28-22.03L53.44-22.03L53.44-22.03Q52.72-22.03 52.25-21.69L52.25-21.69L52.25-21.69Q51.78-21.34 51.13-19.97L51.13-19.97L50.50-20.22L50.50-20.22Q51.19-21.63 51.19-22.39L51.19-22.39L51.19-22.39Q51.19-23.16 50.50-23.64L50.50-23.64L50.50-23.64Q49.81-24.13 48.98-24.13L48.98-24.13L48.98-24.13Q48.16-24.13 47.22-22.34L47.22-22.34L46.53-22.72L46.53-22.72Q47.22-24.06 47.22-24.50L47.22-24.50L47.22-24.50Q47.22-24.94 46.75-25.28L46.75-25.28L46.75-25.28Q46.28-25.63 45.66-25.88L45.66-25.88L45.66-25.88Q44-26.53 43.13-27.59L43.13-27.59L43.13-27.59Q42.28-28.34 40.06-28.34L40.06-28.34L40.06-28.88L40.63-28.88L40.63-28.88Q42.53-28.88 43.13-29.56L43.13-29.56L43.72-30.22L43.72-30.22Q43.22-30.97 42.84-30.97L42.84-30.97L42.84-30.97Q42.47-30.97 40.84-30.47L40.84-30.47L40.50-31.28L40.50-31.28Q41.50-31.78 41.88-32.13L41.88-32.13L41.88-32.13Q42.25-32.47 42.25-32.91L42.25-32.91L42.25-32.91Q42.25-33.34 41.94-34.03L41.94-34.03L41.94-34.03Q41.63-34.72 41.41-35.72L41.41-35.72L41.41-35.72Q39.66-37.19 38-37.19L38-37.19L38-37.19Q37.50-37.19 37.25-37.13L37.25-37.13L36.47-40.84L36.47-40.84Q38.06-41.13 39.14-42.75L39.14-42.75L39.14-42.75Q40.22-44.38 41.09-47.81L41.09-47.81L39.81-50.56L39.81-50.56Q39.91-50.94 40.34-50.94L40.34-50.94L40.34-50.94Q41.25-50.94 42.94-49.63L42.94-49.63L43.53-49.16L43.53-49.16Q43.72-49.34 43.72-49.53L43.72-49.53L43.72-49.53Q44.06-51.03 47.63-51.31L47.63-51.31L47.63-51.31Q51.13-51.63 51.13-53.44L51.13-53.44L51.13-53.44Q51.13-54.09 51.06-54.47L51.06-54.47L52.03-54.53L52.03-54.53Q52.25-52.56 52.97-52.31L52.97-52.31L52.97-52.31Q53.25-52.22 53.81-52.22L53.81-52.22L56.97-52.16L56.97-52.16Q57.47-52.16 57.78-52.53L57.78-52.53L57.78-52.53Q58.09-52.91 58.63-54.22L58.63-54.22L59.31-54.03L59.31-54.03Q58.94-53.09 58.94-52.16L58.94-52.16L58.94-52.16Q58.94-51.25 62.41-49.22L62.41-49.22L62.41-49.22Q63.44-48.63 63.44-48.56L63.44-48.56L63.44-48.56Q63.44-48.50 63.34-48.50L63.34-48.50L63.34-48.50Q63.69-48.50 63.94-48.78L63.94-48.78L68.59-53.69L69.13-53.31L68.22-50.81L68.22-50.81Q68.16-50.69 68.16-50.50L68.16-50.50L68.16-50.50Q68.16-50.31 68.86-49.20L68.86-49.20L68.86-49.20Q69.56-48.09 69.56-47.28L69.56-47.28L69.56-47.28Q69.56-42.88 66.38-32.25L66.38-32.25L66.38-32.25Q66.31-32.25 66.31-31.75L66.31-31.75L66.31-31.75Q66.31-31.25 66.75-29.38L66.75-29.38L66.56-29.31L66.56-29.31Q65.91-32.22 65-32.69L65-32.69L65-32.69Q64.63-32.84 64.05-33.09L64.05-33.09L64.05-33.09Q63.47-33.34 62.94-33.84L62.94-33.84L62.94-33.84Q62.41-34.34 61.63-37.23L61.63-37.23L61.63-37.23Q60.84-40.13 60.66-40.53L60.66-40.53L60.66-40.53Q60.47-40.94 59.58-42.11L59.58-42.11L59.58-42.11Q58.69-43.28 58.66-43.81L58.66-43.81L58.66-43.81Q58.63-44.34 58.44-44.53L58.44-44.53L56-46.78L56-46.78Q55.72-47.16 55.44-47.16L55.44-47.16L55.44-47.16Q54.66-47.16 54.66-46.23L54.66-46.23L54.66-46.23Q54.66-45.31 54.97-44.41L54.97-44.41L54.41-44.22L54.41-44.22Q54-45.66 53.66-46.03L53.66-46.03L53.66-46.03Q53.31-46.41 52.72-46.41L52.72-46.41L50.75-46.41L50.75-46.41Q50.44-46.41 50.25-46.22L50.25-46.22L48.38-44.59L48.38-44.59Q48.19-44.59 48.19-43.97L48.19-43.97L48.19-38.47L48.19-38.47Q48.25-37.88 48.44-37.88L48.44-37.88L48.44-37.88Q49.59-36.97 53.33-34.72L53.33-34.72L53.33-34.72Q57.06-32.47 59.98-30.36L59.98-30.36L59.98-30.36Q62.91-28.25 63.56-26.69L63.56-26.69L63.56-26.69Q63.75-26.25 64.13-26.25L64.13-26.25L64.13-26.25Q66.31-25.69 66.31-18.44L66.31-18.44L66.31-18.44Q66.31-12.59 65.69-11.06L65.69-11.06L65.69-11.06Q64.47-7.94 62.41-6.34L62.41-6.34L62.41-6.34Q62.16-5.97 62.06-5.47L62.06-5.47L62.06-5.47Q61.97-4.97 60.88-3.84L60.88-3.84L60.88-3.84Q59.78-2.72 59.59-1.97L59.59-1.97L59.59-1.97Q58.84-1.53 57.06-1.53L57.06-1.53L57.06-1.53Q55.28-1.53 52.39-1.92L52.39-1.92L52.39-1.92Q49.50-2.31 48.06-2.31L48.06-2.31L48.06-2.31Q46.63-2.31 45.80-1.88L45.80-1.88L45.80-1.88Q44.97-1.44 44.03 0.13L44.03 0.13L43.25-0.31L43.25-0.31Q44.22-1.97 44.22-3L44.22-3L44.22-3Q44.22-3.53 43.59-3.53L43.59-3.53L43.59-3.53Q42.97-3.53 41.97-3.31L41.97-3.31ZM43.97-29.75L43.97-29.75L43.72-30.22L43.72-30.22Q43.81-29.88 43.97-29.75Z" fill="#444"></path></g></g><style>text {
  font-size: 64px;
  font-family: Arial Black;
  dominant-baseline: central;
  text-anchor: middle;
}</style></svg>